<?xml version="1.0" encoding="utf-8"?>
<!-- Generator: Adobe Illustrator 27.0.1, SVG Export Plug-In . SVG Version: 6.00 Build 0)  -->
<svg version="1.1" id="Capa_1" xmlns="http://www.w3.org/2000/svg" xmlns:xlink="http://www.w3.org/1999/xlink" x="0px" y="0px"
	 viewBox="0 0 66 71.9" style="enable-background:new 0 0 66 71.9;" xml:space="preserve">
<style type="text/css">
	.st0{fill:#FFFFFF;}
</style>
<g>
	<path class="st0" d="M58,18.9c0-0.2,0-0.3,0-0.5c-0.2-3-2.6-5.4-5.6-5.6c-0.3,0-0.5,0-0.8,0c-10.2,0-20.3,0-30.5,0
		c-3.6,0-5.7,2.3-6.3,4.7c-0.2,1-0.2,1.9-0.2,2.9c0,0.3-0.1,0.4-0.4,0.4c-0.4,0-0.8,0-1.2,0c-3.7,0-6.3,2.6-6.3,6.3
		c0,10.3,0,20.5,0,30.8c0,0.8,0.1,1.5,0.3,2.2c0.9,2.5,3.1,4.1,6,4.1c5.1,0,10.2,0,15.3,0c5,0,10,0,15.1,0c0.3,0,0.6,0,0.9,0
		c2.7-0.1,4.8-1.9,5.5-4.5c0.2-0.9,0.2-1.8,0.2-2.8c0-0.5,0.1-0.7,0.6-0.7c1.2,0.1,2.5,0.1,3.6-0.5c2.4-1.1,3.7-3,3.7-5.7
		C58,39.6,58,29.2,58,18.9z M46.4,57.8c0,1.6-1,2.5-2.7,2.5c-5.1,0-10.2,0-15.3,0c-5.1,0-10.2,0-15.3,0c-0.8,0-1.5-0.1-2.1-0.8
		c-0.5-0.6-0.6-1.3-0.6-2c0-9.4,0-18.8,0-28.2c0-0.8,0-1.7,0-2.5c0-1.5,1-2.5,2.5-2.5c10.3,0,20.7,0,31,0c1.5,0,2.5,1,2.5,2.5
		C46.4,37.2,46.4,47.5,46.4,57.8z M54.3,34c0,0.1,0,0.3,0,0.4c0,5.1,0,10.1,0,15.2c0,1.9-0.9,2.8-2.8,2.8c-0.4,0-1,0.2-1.3-0.1
		c-0.3-0.3-0.1-0.9-0.1-1.3c0-8,0-16.1,0-24.1c0-3-1.8-5.4-4.7-6.1c-0.6-0.1-1.2-0.2-1.8-0.2c-8.2,0-16.4,0-24.6,0
		c-0.5,0-0.7-0.1-0.6-0.6c0-0.4,0-0.9,0-1.3c0-1.2,0.9-2.1,2.1-2.3c0.2,0,0.3,0,0.5,0c10.2,0,20.4,0,30.6,0c0.7,0,1.3,0.1,1.8,0.5
		c0.7,0.6,0.9,1.3,0.9,2.1C54.3,24.1,54.3,29,54.3,34z"/>
</g>
</svg>
